<?xml version="1.0" standalone="no"?><!DOCTYPE svg PUBLIC "-//W3C//DTD SVG 1.1//EN" "http://www.w3.org/Graphics/SVG/1.1/DTD/svg11.dtd"><svg t="1562651275233" class="icon" viewBox="0 0 1863 1024" version="1.1" xmlns="http://www.w3.org/2000/svg" p-id="1151" data-spm-anchor-id="a313x.7781069.0.i1" xmlns:xlink="http://www.w3.org/1999/xlink" width="363.8671875" height="200"><defs><style type="text/css"></style></defs><path d="M588.054016 298.393746l-90.245914 115.864108V574.953802l90.245914 122.268657v34.933902l-45.122957 154.2914 15.865814 72.778963 371.900497 21.833688 373.647193-30.567164L1260.531628 726.334044l66.956645-75.690121 61.134328-162.588202-23.289268-111.060696-68.557782-78.601279L1240.153518 534.197584l-140.026723 145.557924L1152.818763 981.060412l-451.375124-13.536887L777.279318 679.755508l-75.690121-59.242075L611.343284 449.773987l-23.289268-151.380241z" fill="#C1D284" p-id="1152" data-spm-anchor-id="a313x.7781069.0.i3" class="selected"></path><path d="M1098.3801 452.539588c12.809097-38.281734-47.597441-54.00199-59.242076-16.884719-29.548259 86.461407-188.497512 86.461407-217.026866 0-12.809097-37.699502-71.905615-21.542573-59.242075 16.884719 48.325231 145.557925 286.16688 145.557925 335.511017 0z m0 0" fill="#2F906E" p-id="1153"></path><path d="M1304.344563 373.064961C1304.344563 167.100498 1137.244065 0 931.279602 0S558.796873 167.100498 558.796873 373.064961c0 133.476617 70.15892 249.486283 174.669509 314.987349-50.5086 74.234542-83.550249 176.998436-88.208102 291.261407 3.49339 24.890405 25.472637 44.686283 52.837527 44.686283H1167.374556c26.6371 0 48.761905-19.213646 52.837526-44.686283-4.657854-114.262971-38.281734-217.026866-88.208102-291.261407 102.036105-65.501066 172.340583-182.238522 172.340583-314.987349z m-157.202559 567.967022c0.582232 19.795878-8.151244 22.561478-28.383795 22.561478H742.78209c-19.795878 0-30.712722-6.404549-28.383796-22.561478 15.138024-125.325373 58.077612-218.773561 109.022886-278.45231-108.440654-51.673063-203.635537-156.038095-203.635537-298.830419 0-149.633547 110.769581-301.741578 310.911727-301.741578 204.8 0 313.240654 177.580668 313.240654 301.741578 0 128.818763-92.283724 245.992893-205.964463 299.412651 50.5086 58.514286 92.865956 154.873632 109.168443 277.870078z m0 0" fill="#2F906E" p-id="1154" data-spm-anchor-id="a313x.7781069.0.i2" class="selected"></path><path d="M654.573987 920.653873H604.065387c-13.973561 0-24.890405-4.657854-27.219332-18.049182-2.911158-47.597441 40.028429-158.949254 84.714713-198.977683-90.537029-28.383795-156.620327-131.14769-156.620327-205.964464 0-59.242075 26.6371-112.516276 61.571002-147.304619 2.328927-29.548259 3.49339-63.754371 12.226865-90.537029C497.95366 308.5828 443.95167 396.790903 443.95167 497.808102c0 98.106041 51.673063 185.586354 129.400995 233.766027-37.699502 55.166453-62.007676 131.729922-65.501066 216.444634 2.911158 18.631414 19.213646 33.041649 39.446198 33.041649h103.200568c1.164463-16.302488 2.328927-44.104051 4.075622-60.406539z m557.486852 60.406539h103.200568c19.795878 0 36.535039-14.555792 39.446198-33.041649-3.49339-84.714712-28.383795-161.278181-65.501066-216.444634 77.727932-48.179673 129.400995-135.805544 129.400995-233.766027 0-101.0172-54.00199-189.079744-134.641081-237.841649 8.733475 26.054869 9.897939 60.843213 12.226866 90.53703 34.788344 34.788344 61.571002 88.208102 61.571002 147.304619 0 75.399005-65.501066 178.1629-156.620327 205.964464 44.686283 40.028429 87.625871 151.380242 84.714712 198.977683-2.328927 13.391329-13.973561 18.049183-27.219331 18.049182H1208.130775c1.601137 16.15693 2.765601 43.958493 3.930064 60.260981z m0 0" fill="#2F906E" p-id="1155"></path></svg>